<svg width="26" height="26" viewBox="0 0 26 26" fill="none" xmlns="http://www.w3.org/2000/svg">
<path fill-rule="evenodd" clip-rule="evenodd" d="M19.4933 12.4536C18.856 12.4536 18.3387 11.9349 18.3387 11.2989C18.3387 10.6616 18.856 10.1443 19.4933 10.1443C20.1307 10.1443 20.648 10.6616 20.648 11.2989C20.648 11.9349 20.1307 12.4536 19.4933 12.4536ZM17.2147 16.2936C16.5773 16.2936 16.06 15.7749 16.06 15.1376C16.06 14.5016 16.5773 13.9829 17.2147 13.9829C17.852 13.9829 18.3693 14.5016 18.3693 15.1376C18.3693 15.7749 17.852 16.2936 17.2147 16.2936ZM16.4307 21.0389H8.90405C8.35205 21.0389 7.90405 20.5909 7.90405 20.0389C7.90405 19.4869 8.35205 19.0389 8.90405 19.0389H16.4307C16.9827 19.0389 17.4307 19.4869 17.4307 20.0389C17.4307 20.5909 16.9827 21.0389 16.4307 21.0389ZM6.95072 15.1376C6.95072 14.5016 7.46805 13.9829 8.10538 13.9829C8.74272 13.9829 9.26005 14.5016 9.26005 15.1376C9.26005 15.7749 8.74272 16.2936 8.10538 16.2936C7.46805 16.2936 6.95072 15.7749 6.95072 15.1376ZM5.82672 12.4536C5.18939 12.4536 4.67205 11.9349 4.67205 11.2989C4.67205 10.6616 5.18939 10.1443 5.82672 10.1443C6.46405 10.1443 6.98139 10.6616 6.98139 11.2989C6.98139 11.9349 6.46405 12.4536 5.82672 12.4536ZM10.384 10.1443C11.0213 10.1443 11.5387 10.6616 11.5387 11.2989C11.5387 11.9349 11.0213 12.4536 10.384 12.4536C9.74672 12.4536 9.22939 11.9349 9.22939 11.2989C9.22939 10.6616 9.74672 10.1443 10.384 10.1443ZM12.66 13.9829C13.2973 13.9829 13.8147 14.5016 13.8147 15.1376C13.8147 15.7749 13.2973 16.2936 12.66 16.2936C12.0227 16.2936 11.5053 15.7749 11.5053 15.1376C11.5053 14.5016 12.0227 13.9829 12.66 13.9829ZM14.936 10.1443C15.5733 10.1443 16.0907 10.6616 16.0907 11.2989C16.0907 11.9349 15.5733 12.4536 14.936 12.4536C14.2987 12.4536 13.7813 11.9349 13.7813 11.2989C13.7813 10.6616 14.2987 10.1443 14.936 10.1443ZM18.3053 5.37362H13.8587V5.18829C13.8307 3.23229 12.224 1.65095 10.28 1.65095H8.93605C8.57072 1.65095 8.27072 1.35629 8.26805 0.990954C8.26272 0.438954 7.79872 -0.0130457 7.25872 0.000287616C6.70672 0.00562095 6.26272 0.457621 6.26805 1.00962C6.28272 2.47229 7.47605 3.65095 8.92539 3.65095H10.26C11.0693 3.62962 11.8467 4.34695 11.8587 5.20295V5.37362H7.02805C2.62805 5.37362 5.27526e-05 7.95229 5.27526e-05 12.2709V18.7683C-0.00661391 20.8523 0.618719 22.5856 1.80805 23.7789C3.03205 25.0069 4.83205 25.6549 7.01605 25.6549H18.3053C22.7053 25.6549 25.3333 23.0816 25.3333 18.7709V12.3723C25.3333 7.98962 22.7053 5.37362 18.3053 5.37362Z" fill="url(#paint0_linear_301_867)"/>
<defs>
<linearGradient id="paint0_linear_301_867" x1="2.16671" y1="3.82748" x2="29.1667" y2="35.3275" gradientUnits="userSpaceOnUse">
<stop stop-color="#4CA6FF"/>
<stop offset="1" stop-color="#F4DC73"/>
</linearGradient>
</defs>
</svg>
