<svg width="20" height="20" viewBox="0 0 20 20" fill="none" xmlns="http://www.w3.org/2000/svg">
<path d="M1.5625 1.28125H2.51172C2.75781 1.28125 2.93359 1.49219 2.93359 1.73828L2.86328 5.18359C4.41016 2.82812 7.11719 1.28125 10.1406 1.31641C14.957 1.31641 18.8594 5.25391 18.8594 10.0352C18.8242 14.8516 14.9219 18.7188 10.1406 18.7188C7.89062 18.7188 5.81641 17.875 4.26953 16.5039C4.09375 16.3281 4.09375 16.0469 4.26953 15.8711L4.97266 15.168C5.11328 15.0273 5.35938 15.0273 5.53516 15.168C6.76562 16.2578 8.34766 16.8906 10.1406 16.8906C13.9375 16.8906 17.0312 13.832 17.0312 10C17.0312 6.20312 13.9375 3.10938 10.1406 3.10938C7.32812 3.10938 4.9375 4.79688 3.84766 7.1875L8.27734 7.08203C8.52344 7.08203 8.73438 7.25781 8.73438 7.50391V8.45312C8.73438 8.69922 8.52344 8.875 8.3125 8.875H1.5625C1.31641 8.875 1.14062 8.69922 1.14062 8.45312V1.70312C1.14062 1.49219 1.31641 1.28125 1.5625 1.28125Z" fill="white"/>
</svg>
